<svg width="80" height="80" viewBox="0 0 80 80" fill="none" xmlns="http://www.w3.org/2000/svg">
<mask id="mask0_2591_73345" style="mask-type:alpha" maskUnits="userSpaceOnUse" x="0" y="0" width="80" height="80">
<rect width="80" height="80" fill="#D9D9D9"/>
</mask>
<g mask="url(#mask0_2591_73345)">
<path d="M69.9993 43.3331H63.3327C62.3882 43.3331 61.5966 43.0137 60.9577 42.3748C60.3188 41.7359 59.9993 40.9442 59.9993 39.9998C59.9993 39.0553 60.3188 38.2637 60.9577 37.6248C61.5966 36.9859 62.3882 36.6664 63.3327 36.6664H69.9993C70.9438 36.6664 71.7355 36.9859 72.3743 37.6248C73.0132 38.2637 73.3327 39.0553 73.3327 39.9998C73.3327 40.9442 73.0132 41.7359 72.3743 42.3748C71.7355 43.0137 70.9438 43.3331 69.9993 43.3331ZM55.3327 55.9998C55.8882 55.222 56.6105 54.7776 57.4993 54.6664C58.3882 54.5553 59.2216 54.7776 59.9993 55.3331L65.3327 59.3331C66.1105 59.8887 66.5549 60.6109 66.666 61.4998C66.7771 62.3887 66.5549 63.222 65.9994 63.9998C65.4438 64.7776 64.7216 65.222 63.8327 65.3331C62.9438 65.4442 62.1105 65.222 61.3327 64.6664L55.9993 60.6664C55.2216 60.1109 54.7771 59.3887 54.666 58.4998C54.5549 57.6109 54.7771 56.7776 55.3327 55.9998ZM65.3327 20.6664L59.9993 24.6664C59.2216 25.222 58.3882 25.4442 57.4993 25.3331C56.6105 25.222 55.8882 24.7776 55.3327 23.9998C54.7771 23.222 54.5549 22.3887 54.666 21.4998C54.7771 20.6109 55.2216 19.8887 55.9993 19.3331L61.3327 15.3331C62.1105 14.7776 62.9438 14.5553 63.8327 14.6664C64.7216 14.7776 65.4438 15.222 65.9994 15.9998C66.5549 16.7776 66.7771 17.6109 66.666 18.4998C66.5549 19.3887 66.1105 20.1109 65.3327 20.6664ZM16.666 49.9998H13.3327C11.4993 49.9998 9.9299 49.347 8.62435 48.0414C7.31879 46.7359 6.66602 45.1664 6.66602 43.3331V36.6664C6.66602 34.8331 7.31879 33.2637 8.62435 31.9581C9.9299 30.6526 11.4993 29.9998 13.3327 29.9998H26.666L38.2493 22.9998C39.3605 22.3331 40.4855 22.3331 41.6243 22.9998C42.7632 23.6664 43.3327 24.6387 43.3327 25.9164V54.0831C43.3327 55.3609 42.7632 56.3331 41.6243 56.9998C40.4855 57.6664 39.3605 57.6664 38.2493 56.9998L26.666 49.9998H23.3327V59.9998C23.3327 60.9442 23.0132 61.7359 22.3743 62.3748C21.7355 63.0137 20.9438 63.3331 19.9993 63.3331C19.0549 63.3331 18.2632 63.0137 17.6243 62.3748C16.9855 61.7359 16.666 60.9442 16.666 59.9998V49.9998ZM46.666 51.1664V28.8331C48.166 30.1664 49.3744 31.7914 50.291 33.7081C51.2077 35.6248 51.666 37.722 51.666 39.9998C51.666 42.2776 51.2077 44.3748 50.291 46.2914C49.3744 48.2081 48.166 49.8331 46.666 51.1664Z" fill="#60918B"/>
</g>
</svg>
