<svg width="70" height="70" viewBox="0 0 70 70" fill="none" xmlns="http://www.w3.org/2000/svg">
<mask id="mask0_2591_73366" style="mask-type:alpha" maskUnits="userSpaceOnUse" x="0" y="0" width="70" height="70">
<rect width="70" height="70" fill="#D9D9D9"/>
</mask>
<g mask="url(#mask0_2591_73366)">
<path d="M1.54167 53.25C0.679861 53.25 -0.0425347 52.9585 -0.625521 52.3755C-1.20851 51.7925 -1.5 51.0701 -1.5 50.2083V48.4594C-1.5 46.2795 -0.384722 44.5052 1.84583 43.1365C4.07639 41.7677 7.01667 41.0833 10.6667 41.0833C11.3257 41.0833 11.9594 41.096 12.5677 41.1214C13.176 41.1467 13.759 41.2101 14.3167 41.3115C13.6069 42.376 13.0747 43.4913 12.7198 44.6573C12.3649 45.8233 12.1875 47.0399 12.1875 48.3073V53.25H1.54167ZM19.7917 53.25C18.9299 53.25 18.2075 52.9585 17.6245 52.3755C17.0415 51.7925 16.75 51.0701 16.75 50.2083V48.3073C16.75 46.6851 17.1936 45.2023 18.0807 43.8589C18.9679 42.5155 20.2226 41.3368 21.8448 40.3229C23.467 39.309 25.4061 38.5486 27.662 38.0417C29.9179 37.5347 32.3639 37.2812 35 37.2812C37.6868 37.2812 40.1582 37.5347 42.4141 38.0417C44.67 38.5486 46.609 39.309 48.2313 40.3229C49.8535 41.3368 51.0955 42.5155 51.9573 43.8589C52.8191 45.2023 53.25 46.6851 53.25 48.3073V50.2083C53.25 51.0701 52.9585 51.7925 52.3755 52.3755C51.7925 52.9585 51.0701 53.25 50.2083 53.25H19.7917ZM57.8125 53.25V48.3073C57.8125 46.9892 57.6477 45.7472 57.3182 44.5813C56.9887 43.4153 56.4944 42.3253 55.8354 41.3115C56.3931 41.2101 56.9634 41.1467 57.5464 41.1214C58.1293 41.096 58.725 41.0833 59.3333 41.0833C62.9833 41.0833 65.9236 41.755 68.1542 43.0984C70.3847 44.4418 71.5 46.2288 71.5 48.4594V50.2083C71.5 51.0701 71.2085 51.7925 70.6255 52.3755C70.0425 52.9585 69.3201 53.25 68.4583 53.25H57.8125ZM10.6667 38.0417C8.99375 38.0417 7.56163 37.446 6.37031 36.2547C5.17899 35.0634 4.58333 33.6313 4.58333 31.9583C4.58333 30.2347 5.17899 28.7899 6.37031 27.624C7.56163 26.458 8.99375 25.875 10.6667 25.875C12.3903 25.875 13.8351 26.458 15.001 27.624C16.167 28.7899 16.75 30.2347 16.75 31.9583C16.75 33.6313 16.167 35.0634 15.001 36.2547C13.8351 37.446 12.3903 38.0417 10.6667 38.0417ZM59.3333 38.0417C57.6604 38.0417 56.2283 37.446 55.037 36.2547C53.8457 35.0634 53.25 33.6313 53.25 31.9583C53.25 30.2347 53.8457 28.7899 55.037 27.624C56.2283 26.458 57.6604 25.875 59.3333 25.875C61.0569 25.875 62.5017 26.458 63.6677 27.624C64.8337 28.7899 65.4167 30.2347 65.4167 31.9583C65.4167 33.6313 64.8337 35.0634 63.6677 36.2547C62.5017 37.446 61.0569 38.0417 59.3333 38.0417ZM35 35C32.4653 35 30.3108 34.1128 28.5365 32.3385C26.7622 30.5642 25.875 28.4097 25.875 25.875C25.875 23.2896 26.7622 21.1224 28.5365 19.3734C30.3108 17.6245 32.4653 16.75 35 16.75C37.5854 16.75 39.7526 17.6245 41.5016 19.3734C43.2505 21.1224 44.125 23.2896 44.125 25.875C44.125 28.4097 43.2505 30.5642 41.5016 32.3385C39.7526 34.1128 37.5854 35 35 35Z" fill="#4A5565"/>
</g>
</svg>
