<svg width="80" height="80" viewBox="0 0 80 80" fill="none" xmlns="http://www.w3.org/2000/svg">
<mask id="mask0_2591_73285" style="mask-type:alpha" maskUnits="userSpaceOnUse" x="0" y="0" width="80" height="80">
<rect width="80" height="80" fill="#D9D9D9"/>
</mask>
<g mask="url(#mask0_2591_73285)">
<path d="M3.33398 57.334C3.33398 55.4451 3.8201 53.709 4.79232 52.1256C5.76454 50.5423 7.05621 49.334 8.66732 48.5007C12.1118 46.7784 15.6118 45.4868 19.1673 44.6257C22.7229 43.7645 26.334 43.334 30.0007 43.334C33.6673 43.334 37.2784 43.7645 40.834 44.6257C44.3895 45.4868 47.8895 46.7784 51.334 48.5007C52.9451 49.334 54.2368 50.5423 55.209 52.1256C56.1812 53.709 56.6673 55.4451 56.6673 57.334V60.0006C56.6673 61.834 56.0145 63.4034 54.709 64.709C53.4034 66.0145 51.834 66.6673 50.0007 66.6673H10.0007C8.16732 66.6673 6.59787 66.0145 5.29232 64.709C3.98676 63.4034 3.33398 61.834 3.33398 60.0006V57.334ZM61.5007 66.6673C62.1118 65.6673 62.5701 64.5979 62.8757 63.459C63.1812 62.3201 63.334 61.1673 63.334 60.0006V56.6673C63.334 54.2229 62.6534 51.8756 61.2923 49.6256C59.9312 47.3756 58.0007 45.4451 55.5007 43.834C58.334 44.1673 61.0007 44.7368 63.5007 45.5423C66.0007 46.3479 68.334 47.334 70.5007 48.5007C72.5007 49.6118 74.0284 50.8479 75.084 52.209C76.1395 53.5701 76.6673 55.0562 76.6673 56.6673V60.0006C76.6673 61.834 76.0145 63.4034 74.709 64.709C73.4034 66.0145 71.834 66.6673 70.0007 66.6673H61.5007ZM20.584 36.084C17.9729 33.4729 16.6673 30.334 16.6673 26.6673C16.6673 23.0007 17.9729 19.8618 20.584 17.2507C23.1951 14.6395 26.334 13.334 30.0007 13.334C33.6673 13.334 36.8062 14.6395 39.4173 17.2507C42.0284 19.8618 43.334 23.0007 43.334 26.6673C43.334 30.334 42.0284 33.4729 39.4173 36.084C36.8062 38.6951 33.6673 40.0007 30.0007 40.0007C26.334 40.0007 23.1951 38.6951 20.584 36.084ZM59.4173 36.084C56.8062 38.6951 53.6673 40.0007 50.0007 40.0007C49.3895 40.0007 48.6118 39.9312 47.6673 39.7923C46.7229 39.6534 45.9451 39.5007 45.334 39.334C46.834 37.5562 47.9868 35.584 48.7923 33.4173C49.5979 31.2507 50.0007 29.0007 50.0007 26.6673C50.0007 24.334 49.5979 22.084 48.7923 19.9173C47.9868 17.7507 46.834 15.7784 45.334 14.0007C46.1118 13.7229 46.8895 13.5423 47.6673 13.459C48.4451 13.3757 49.2229 13.334 50.0007 13.334C53.6673 13.334 56.8062 14.6395 59.4173 17.2507C62.0284 19.8618 63.334 23.0007 63.334 26.6673C63.334 30.334 62.0284 33.4729 59.4173 36.084Z" fill="#4A5565"/>
</g>
</svg>
