<svg width="80" height="80" viewBox="0 0 80 80" fill="none" xmlns="http://www.w3.org/2000/svg">
<mask id="mask0_2591_73358" style="mask-type:alpha" maskUnits="userSpaceOnUse" x="0" y="0" width="80" height="80">
<rect width="80" height="80" fill="#D9D9D9"/>
</mask>
<g mask="url(#mask0_2591_73358)">
<path d="M9.12695 39.9936C9.12695 35.7212 9.93766 31.7063 11.5591 27.9487C13.1805 24.1911 15.381 20.9226 18.1606 18.143C20.9402 15.3634 24.2087 13.1629 27.9663 11.5415C31.7239 9.92008 35.7388 9.10938 40.0111 9.10938C46.5483 9.10938 52.3777 10.911 57.4993 14.5141C62.6209 18.1173 66.3399 22.7756 68.6562 28.4892C69.0165 29.3643 69.0294 30.2393 68.6948 31.1144C68.3602 31.9894 67.7554 32.5814 66.8804 32.8902C66.0568 33.1476 65.2718 33.0704 64.5255 32.6586C63.7791 32.2468 63.2515 31.6291 62.9426 30.8055C61.7073 27.7171 59.9314 24.989 57.6151 22.6212C55.2988 20.2534 52.5192 18.4261 49.2764 17.1393V18.3746C49.2764 20.0733 48.6716 21.5274 47.4619 22.737C46.2523 23.9467 44.7982 24.5515 43.0996 24.5515H36.9227V30.7283C36.9227 31.6034 36.6267 32.3369 36.0348 32.9288C35.4429 33.5207 34.7094 33.8167 33.8343 33.8167H27.6575V39.9936H30.7459C31.6209 39.9936 32.3544 40.2895 32.9464 40.8815C33.5383 41.4734 33.8343 42.2069 33.8343 43.082V49.2588H30.7459L15.9215 34.4344C15.7671 35.3609 15.6255 36.2875 15.4968 37.214C15.3681 38.1405 15.3038 39.067 15.3038 39.9936C15.3038 46.2733 17.3756 51.7553 21.5192 56.4394C25.6629 61.1235 30.8746 63.8259 37.1543 64.5465C37.9779 64.6494 38.66 64.9969 39.2004 65.5888C39.7409 66.1808 40.0111 66.9143 40.0111 67.7893C40.0111 68.6644 39.7152 69.3979 39.1232 69.9898C38.5313 70.5818 37.8235 70.8263 36.9999 70.7233C29.1245 69.9512 22.5101 66.6569 17.1568 60.8404C11.8036 55.0239 9.12695 48.0749 9.12695 39.9936ZM65.9538 67.1716L58.2328 59.4506C57.1519 60.0683 55.9937 60.583 54.7583 60.9948C53.523 61.4066 52.2104 61.6125 50.8206 61.6125C46.9601 61.6125 43.6786 60.2613 40.9763 57.5589C38.2739 54.8566 36.9227 51.5751 36.9227 47.7146C36.9227 43.8541 38.2739 40.5726 40.9763 37.8703C43.6786 35.1679 46.9601 33.8167 50.8206 33.8167C54.6811 33.8167 57.9626 35.1679 60.6649 37.8703C63.3673 40.5726 64.7185 43.8541 64.7185 47.7146C64.7185 49.1044 64.5126 50.417 64.1008 51.6523C63.689 52.8877 63.1743 54.0459 62.5566 55.1268L70.2776 62.8479C70.8439 63.4141 71.127 64.1347 71.127 65.0097C71.127 65.8848 70.8439 66.6054 70.2776 67.1716C69.7114 67.7379 68.9908 68.021 68.1157 68.021C67.2407 68.021 66.5201 67.7379 65.9538 67.1716ZM56.3025 53.1965C57.7953 51.7038 58.5416 49.8765 58.5416 47.7146C58.5416 45.5527 57.7953 43.7254 56.3025 42.2327C54.8098 40.7399 52.9825 39.9936 50.8206 39.9936C48.6587 39.9936 46.8314 40.7399 45.3387 42.2327C43.8459 43.7254 43.0996 45.5527 43.0996 47.7146C43.0996 49.8765 43.8459 51.7038 45.3387 53.1965C46.8314 54.6893 48.6587 55.4356 50.8206 55.4356C52.9825 55.4356 54.8098 54.6893 56.3025 53.1965Z" fill="#4A5565"/>
</g>
</svg>
