<svg width="21" height="26" viewBox="0 0 21 26" fill="none" xmlns="http://www.w3.org/2000/svg">
<path d="M10.1533 23.0521C8.63544 23.0521 7.40491 21.8216 7.40491 20.3037C7.40491 18.7858 8.63544 17.5553 10.1533 17.5553C11.6712 17.5553 12.9017 18.7858 12.9017 20.3037C12.9017 21.8216 11.6712 23.0521 10.1533 23.0521ZM15.621 19.215C15.3544 17.8689 14.6032 16.6972 13.5568 15.8892C12.6153 15.1622 11.4349 14.7294 10.1533 14.7294C9.93215 14.7294 9.71411 14.7427 9.49969 14.7678C8.12694 14.9282 6.90639 15.5869 6.02438 16.5588C5.47415 17.1651 5.05595 17.8933 4.81428 18.6979C4.66154 19.2064 4.57909 19.7454 4.57909 20.3037C4.57909 20.4845 4.58805 20.6632 4.60485 20.8397C4.6768 21.5938 4.89893 22.3041 5.2411 22.9403C5.76254 23.9096 6.56244 24.7068 7.53379 25.2249C8.23634 25.5997 9.02841 25.8287 9.86982 25.8708C9.96373 25.8755 10.0582 25.8779 10.1533 25.8779C11.1967 25.8779 12.1729 25.591 13.0079 25.0921C13.6428 24.7128 14.196 24.2109 14.6347 23.619C15.0598 23.0452 15.3774 22.387 15.5576 21.6741C15.6684 21.2356 15.7276 20.7766 15.7276 20.3037C15.7276 19.9311 15.6907 19.5671 15.621 19.215Z" fill="#5BEDD5"/>
<path d="M7.46713 20.8857L4.73154 21.5941L0.0454742 3.49781C-0.150184 2.74242 0.303641 1.97142 1.05903 1.77582C1.81447 1.58022 2.58541 2.03399 2.78101 2.78943L7.46713 20.8857Z" fill="#5BEDD5"/>
<path d="M13.3107 1.40986C13.2543 0.630962 11.8936 0 10.1533 0C8.41308 0 7.0373 0.637908 6.99331 1.40986C6.98007 1.56075 6.98304 1.71237 7.00216 1.86267C7.00584 1.892 7.01011 1.92447 7.01486 1.96133L8.7404 13.2069C8.74023 13.2069 8.74058 13.2068 8.7404 13.2069C8.98705 13.1425 9.24101 13.0943 9.49965 13.064C9.71412 13.039 9.93216 13.0257 10.1533 13.0257C10.6416 13.0257 11.115 13.0889 11.5662 13.2069L13.2918 1.96139C13.312 1.77173 13.3149 1.75208 13.3149 1.56847L13.3107 1.40986Z" fill="#5BEDD5"/>
<path d="M19.5885 1.97495C18.6735 1.66609 17.7474 1.9144 17.4071 2.52732C17.3609 2.61054 17.3301 2.70131 17.3077 2.7938C17.2945 2.84853 14.3338 13.6701 14.3338 13.6701C14.9947 13.9346 15.5895 14.3198 16.093 14.7971C16.308 15.001 16.5054 15.2224 16.6853 15.4573L20.8393 4.23951C20.879 4.1323 20.944 3.92358 20.944 3.92358C21.1934 3.18428 20.5865 2.31189 19.5885 1.97495Z" fill="#5BEDD5"/>
</svg>
