<svg width="105" height="25" viewBox="0 0 105 25" fill="none" xmlns="http://www.w3.org/2000/svg">
<path d="M22.5577 17.7006C22.5577 18.5883 21.8507 19.308 20.9785 19.308H16.4094C15.5373 19.308 14.8303 18.5883 14.8303 17.7006C14.8303 16.8128 15.5373 16.0931 16.4094 16.0931H20.9785C21.8507 16.0931 22.5577 16.8128 22.5577 17.7006Z" fill="#14181F"/>
<path d="M74.0097 11.3579H71.3974V8.68943C71.3974 7.8017 70.6904 7.08199 69.8182 7.08199C68.946 7.08199 68.239 7.8017 68.239 8.68943V11.3579H65.6266C65.4366 11.3579 65.2824 11.5148 65.2824 11.7083V14.2224C65.2824 14.4158 65.4366 14.5727 65.6266 14.5727H68.239V23.6922C68.239 23.8861 68.3935 24.0433 68.584 24.0433H71.0524C71.2429 24.0433 71.3974 23.8861 71.3974 23.6922V14.5727H74.0097C74.1998 14.5727 74.354 14.4158 74.354 14.2224V11.7083C74.354 11.5148 74.1998 11.3579 74.0097 11.3579Z" fill="#14181F"/>
<path d="M59.2035 18.4405C58.802 20.1183 57.1402 21.1471 55.4919 20.7384C53.8436 20.3297 52.8328 18.6382 53.2344 16.9604C53.6359 15.2826 55.2977 14.2538 56.946 14.6625C58.5943 15.0713 59.605 16.7627 59.2035 18.4405ZM60.9111 11.3405C60.2692 11.3405 59.717 11.7307 59.4701 12.2906C58.9332 11.9563 58.3378 11.6989 57.6936 11.5391C57.4534 11.4795 57.2131 11.4355 56.9735 11.4054C55.4404 11.2131 53.9408 11.6126 52.726 12.4494C51.968 12.9714 51.3213 13.6636 50.846 14.4879C50.5456 15.0089 50.3135 15.5824 50.1658 16.1995C50.118 16.3995 50.0803 16.5994 50.052 16.7989C49.9306 17.6519 49.9839 18.4968 50.1872 19.2921C50.497 20.504 51.1548 21.6004 52.0725 22.4347C52.7363 23.0381 53.5359 23.5045 54.4384 23.7777C54.5391 23.8081 54.6411 23.8362 54.7444 23.8619C55.8774 24.1428 57.0134 24.0885 58.0521 23.7619C58.4998 23.6211 58.9285 23.4281 59.3319 23.1911V23.6922C59.3319 23.8861 59.4865 24.0434 59.6769 24.0434H62.1453C62.3358 24.0434 62.4903 23.8861 62.4903 23.6922V12.9479C62.4903 12.0601 61.7833 11.3405 60.9111 11.3405Z" fill="#14181F"/>
<path d="M85.3401 19.3092C84.7885 20.244 83.7708 20.8613 82.6139 20.8272C81.0106 20.7799 79.6965 19.4552 79.6356 17.8236C79.5691 16.0413 80.9689 14.575 82.7052 14.575C83.8242 14.575 84.8031 15.1842 85.3401 16.0944H88.7317C88.3783 14.7183 87.5837 13.5241 86.5091 12.6796C85.4568 11.8525 84.1376 11.3602 82.7052 11.3602C82.458 11.3602 82.2143 11.3753 81.9746 11.4038C80.4403 11.5863 79.0762 12.3357 78.0904 13.4414C77.4754 14.1312 77.008 14.9596 76.7379 15.8749C76.5672 16.4534 76.475 17.0666 76.475 17.7018C76.475 17.9075 76.485 18.1108 76.5038 18.3116C76.5842 19.1695 76.8325 19.9776 77.215 20.7013C77.7977 21.8041 78.6917 22.711 79.7774 23.3004C80.5627 23.7268 81.4479 23.9873 82.3883 24.0352C82.4933 24.0406 82.5989 24.0434 82.7052 24.0434C83.8713 24.0434 84.9624 23.7169 85.8957 23.1494C86.6053 22.7178 87.2236 22.1469 87.7138 21.4734C88.1795 20.8338 88.5287 20.1015 88.7321 19.3092H85.3401Z" fill="#14181F"/>
<path d="M28.5357 17.7674H28.5382C28.5369 17.7323 28.5358 17.6972 28.5357 17.662C28.5351 17.4143 28.5636 17.1626 28.6238 16.9112C29.0256 15.2323 30.6885 14.2028 32.3379 14.6119C33.782 14.9699 34.737 16.312 34.6827 17.7674H34.6844V23.727C34.6844 23.9214 34.8392 24.079 35.0302 24.079H37.4996C37.6906 24.079 37.8454 23.9214 37.8454 23.727V17.6156C37.8443 17.3849 37.8295 17.1562 37.804 16.9299C37.6692 15.7337 37.2028 14.6101 36.4772 13.6861C36.4088 13.5988 36.3371 13.5142 36.264 13.4305C35.4516 12.5007 34.3637 11.8031 33.0859 11.4862C32.8455 11.4267 32.6051 11.3826 32.3655 11.3526C30.942 11.174 29.5478 11.506 28.3829 12.2235C28.1292 11.6805 27.5854 11.305 26.9553 11.305C26.0826 11.305 25.3749 12.025 25.3749 12.9133V23.727C25.3749 23.9214 25.5297 24.079 25.7207 24.079H28.1897C28.3807 24.079 28.5355 23.9215 28.5355 23.727L28.5357 17.7674Z" fill="#14181F"/>
<path d="M47.1554 17.6516C47.1566 16.1884 46.6573 14.7939 45.7872 13.6859C44.9566 12.6282 43.7885 11.8314 42.396 11.4861C42.1556 11.4265 41.9151 11.3825 41.6755 11.3524C40.1413 11.1599 38.6407 11.5597 37.425 12.397C37.3732 12.4327 37.3219 12.4692 37.2711 12.5065C37.3315 12.5764 37.3912 12.6473 37.4483 12.72C38.0763 13.5198 38.5097 14.4693 38.7024 15.4859C39.4362 14.7081 40.5444 14.3381 41.6479 14.6117C43.0752 14.9656 44.0239 16.2808 43.9934 17.7164L43.9941 23.1699L43.9949 23.7271C43.9949 23.9215 44.1497 24.079 44.3407 24.079H46.8111C47.0012 24.079 47.1554 23.9221 47.1554 23.7285V17.6516Z" fill="#14181F"/>
<path d="M9.20229 18.4953C8.77103 20.1654 7.09131 21.1635 5.45046 20.7244C3.80969 20.2854 2.8292 18.5757 3.26046 16.9056C3.69172 15.2355 5.37151 14.2374 7.01229 14.6764C8.65307 15.1154 9.63355 16.8251 9.20229 18.4953ZM11.1647 13.8276C10.3534 12.7553 9.2005 11.9378 7.81516 11.5671C7.57605 11.5032 7.3366 11.4548 7.09768 11.4203C5.69748 11.2184 4.31718 11.5143 3.15032 12.1903V1.60332C3.15032 0.717818 2.44511 0 1.57516 0C0.705276 0 0 0.717818 0 1.60332V17.7004C-0.000331739 18.2047 0.0588499 18.7012 0.172371 19.1808C0.460585 20.3982 1.09872 21.5065 2.00151 22.3576C2.65451 22.9731 3.44564 23.4541 4.34319 23.7439C4.44337 23.7761 4.54482 23.8061 4.64759 23.8337C5.77544 24.1354 6.91224 24.102 7.95655 23.7946C8.75067 23.5608 9.49117 23.1687 10.1336 22.6442C10.7562 22.1359 11.2864 21.5035 11.6838 20.7711C11.9282 20.3208 12.1225 19.8328 12.2569 19.3125C12.3628 18.9026 12.4263 18.4914 12.451 18.0838C12.5454 16.5256 12.0663 15.0192 11.1647 13.8276Z" fill="#14181F"/>
<path d="M104.386 17.3387C104.37 17.0409 104.333 16.7486 104.278 16.4632C103.98 14.9318 103.14 13.5989 101.971 12.6797C100.918 11.8526 99.599 11.3602 98.1666 11.3602C97.9194 11.3602 97.6757 11.3753 97.436 11.4039C96.5924 11.5042 95.8008 11.7767 95.0948 12.1848V1.60739C95.0948 0.719656 94.3877 1.22772e-05 93.5156 1.22772e-05C92.6434 1.22772e-05 91.9364 0.719656 91.9364 1.60739V23.6921C91.9364 23.8861 92.0909 24.0433 92.2814 24.0433H94.7498C94.9402 24.0433 95.0948 23.8861 95.0948 23.6921V17.7532C95.0948 16.0386 96.4298 14.6041 98.1141 14.5755C99.8346 14.5462 101.238 15.9571 101.238 17.7017V23.6919C101.238 23.886 101.393 24.0433 101.584 24.0433H104.052C104.242 24.0433 104.397 23.886 104.397 23.6919V17.4748C104.397 17.4284 104.392 17.3833 104.386 17.3387Z" fill="#14181F"/>
</svg>
