<svg width="24" height="28" viewBox="0 0 24 28" fill="none" xmlns="http://www.w3.org/2000/svg">
<path d="M8.95556 23.9472C10.2363 23.9472 10.798 23.0597 12.3933 23.0597C13.9886 23.0597 14.3706 23.9135 15.7861 23.9135C17.2017 23.9135 18.1117 22.5879 18.9992 21.2846C19.9879 19.7904 20.3923 18.33 20.426 18.2625C20.3361 18.2401 17.6623 17.1054 17.6623 13.9485C17.6623 11.2072 19.7744 9.97144 19.8867 9.88156C18.4937 7.8144 16.3703 7.76946 15.7974 7.76946C14.2358 7.76946 12.955 8.74687 12.1462 8.74687C11.2811 8.74687 10.1352 7.82564 8.7758 7.82564C6.19186 7.82564 3.57422 10.0276 3.57422 14.1732C3.57422 16.7459 4.55162 19.4759 5.74248 21.2397C6.76482 22.7339 7.66359 23.9585 8.95556 23.9585V23.9472ZM12.2473 7.5223C13.1797 7.5223 14.3594 6.8707 15.0559 6.00564C15.685 5.21922 16.1457 4.11823 16.1457 3.01724C16.1457 2.87119 16.1344 2.71391 16.1007 2.60156C15.0559 2.6465 13.8089 3.32058 13.0562 4.23058C12.4607 4.92712 11.9215 6.00564 11.9215 7.11786C11.9215 7.27514 11.9439 7.44366 11.9664 7.49983C12.0338 7.51107 12.1349 7.5223 12.2473 7.5223Z" fill="#A4ADBA"/>
</svg>
