<svg width="24" height="28" viewBox="0 0 24 28" fill="none" xmlns="http://www.w3.org/2000/svg">
<path d="M11.9447 13.5748L4.07422 21.9256C4.31809 22.8346 5.14578 23.4997 6.12866 23.4997C6.52034 23.4997 6.88984 23.3962 7.20761 23.2041L7.22978 23.1893L16.0831 18.0827L11.9373 13.5674L11.9447 13.5748Z" fill="#EA4335"/>
<path d="M19.9041 12.1561H19.8967L16.076 9.93164L11.7676 13.7671L16.0908 18.0903L19.8967 15.8955C20.5618 15.5333 21.0126 14.8313 21.0126 14.0258C21.0126 13.2202 20.5692 12.5182 19.9041 12.1635V12.1561Z" fill="#FBBC04"/>
<path d="M4.0739 6.08203C4.02956 6.25939 4 6.43676 4 6.6289V21.387C4 21.5791 4.02217 21.7565 4.0739 21.9338L12.2104 13.7973L4.0739 6.08203Z" fill="#4285F4"/>
<path d="M12.0038 14.0037L16.0757 9.93173L7.22978 4.80299C6.91201 4.61085 6.53512 4.5 6.12866 4.5C5.14578 4.5 4.31809 5.1725 4.07422 6.07409L12.0038 13.9963V14.0037Z" fill="#34A853"/>
</svg>
